<?xml version="1.0" encoding="UTF-8" standalone="no"?>
<!DOCTYPE svg PUBLIC "-//W3C//DTD SVG 1.1//EN" "http://www.w3.org/Graphics/SVG/1.1/DTD/svg11.dtd">
<svg width="100%" height="100%" viewBox="0 0 2048 2048" version="1.1" xmlns="http://www.w3.org/2000/svg" xmlns:xlink="http://www.w3.org/1999/xlink" xml:space="preserve" xmlns:serif="http://www.serif.com/" style="fill-rule:evenodd;clip-rule:evenodd;stroke-linejoin:round;stroke-miterlimit:2;">
    <g transform="matrix(-0.138348,-0,0,-0.138348,2431.48,2429.5)">
        <path d="M3950,15160C3695,15127 3449,15021 3315,14886C3234,14804 3193,14732 3154,14605C3129,14523 3127,14500 3126,14345C3126,14105 3159,13881 3250,13501C3336,13147 3430,12435 3430,12139C3430,12016 3426,11978 3395,11837C3376,11748 3347,11626 3331,11565C3226,11172 3200,11066 3191,10990C3167,10799 3184,10245 3221,10015C3248,9846 3324,9707 3433,9623C3492,9577 3634,9499 3676,9488C3695,9483 3686,9461 3555,9198C3327,8741 3272,8577 3283,8385C3286,8316 3295,8276 3319,8214C3381,8054 3488,7936 3819,7665C4142,7400 4256,7250 4359,6949C4427,6748 4450,6601 4470,6228C4486,5941 4517,5801 4603,5636C4651,5543 4767,5418 4870,5349C5075,5211 5440,5128 5709,5158C5877,5177 6238,5283 6466,5380C6670,5468 6896,5589 7012,5672C7074,5717 7163,5780 7210,5813C7257,5846 7356,5923 7430,5985C7504,6046 7628,6146 7705,6205C7782,6265 7904,6363 7975,6425C8047,6486 8166,6585 8240,6645C8314,6706 8463,6841 8570,6946C8780,7151 8899,7255 9074,7384C9251,7516 9340,7573 9344,7558C9347,7551 9381,7415 9420,7255C9525,6833 9677,6350 9766,6161C9899,5878 10080,5756 10270,5820C10405,5865 10513,5984 10623,6205C10688,6336 10720,6424 10794,6670C10885,6974 10899,7024 10965,7290C11138,7981 11249,8684 11311,9480C11328,9690 11328,10395 11312,10580C11242,11374 11084,11803 10816,11926L10761,11951L10785,11999C10845,12117 10868,12336 10835,12465C10799,12607 10714,12731 10594,12816C10559,12841 10530,12866 10530,12871C10530,12896 10721,13222 10831,13387C10901,13492 11107,13766 11190,13865C11279,13971 11440,14129 11570,14235C11687,14332 11842,14440 11863,14440C11903,14440 12126,14507 12198,14541C12316,14596 12391,14652 12512,14779C12630,14902 12680,14983 12660,15019C12637,15063 12529,15040 12308,14943C12155,14875 12059,14819 11960,14739C11930,14714 11853,14656 11790,14610C11420,14341 11194,14121 10907,13750C10701,13484 10473,13138 10409,12996L10375,12920L10320,12928C10249,12937 10172,12937 10090,12927L10025,12920L10002,12967C9962,13047 9790,13351 9742,13425C9717,13464 9658,13549 9610,13615C9563,13681 9492,13780 9453,13835C9289,14066 9045,14317 8770,14539C8685,14608 8590,14686 8560,14713C8530,14740 8474,14785 8436,14811C8345,14876 8082,15004 7989,15029C7923,15048 7914,15048 7893,15035C7861,15014 7864,14984 7905,14916C7995,14766 8182,14590 8329,14516C8393,14483 8610,14410 8642,14410C8681,14410 8932,14197 9105,14018C9300,13818 9575,13422 9761,13076C9864,12884 9872,12865 9855,12856C9621,12718 9508,12517 9523,12265C9529,12173 9566,12033 9594,11995C9603,11984 9610,11972 9610,11968C9610,11964 9582,11948 9548,11931C9509,11912 9463,11878 9426,11841L9366,11781L9306,11871C9235,11980 9113,12119 9004,12216C8906,12304 8547,12604 8339,12772C8174,12906 8096,12977 7793,13265C7586,13462 7253,13733 7058,13862C6990,13907 6892,13975 6840,14014C6494,14270 6202,14459 5980,14570C5646,14737 4953,14999 4603,15090C4362,15153 4105,15180 3950,15160ZM4424,14920C4751,14853 5517,14573 5891,14384C6092,14284 6401,14084 6680,13875C6732,13835 6843,13758 6925,13703C7167,13541 7457,13302 7750,13023C7902,12879 8115,12689 8250,12579C8766,12156 8910,12031 9013,11915C9089,11829 9250,11599 9250,11576C9250,11556 9185,11361 9179,11363C9175,11364 9145,11400 9111,11442C8940,11655 8657,11932 8290,12247C8188,12334 8061,12443 8009,12491C7870,12614 7668,12779 7485,12918C7397,12985 7269,13088 7200,13146C7131,13205 7022,13292 6957,13341C6811,13450 6180,13852 6005,13948C5660,14136 5255,14281 4770,14389C4570,14434 4510,14441 4345,14441C4077,14442 3968,14411 3873,14306C3744,14165 3691,13943 3710,13620C3725,13364 3765,13177 3923,12635C3964,12494 4026,12139 4041,11955C4060,11727 4044,11639 3941,11420C3869,11269 3793,11049 3766,10920C3746,10822 3722,10590 3714,10415C3706,10240 3722,10123 3790,9859C3845,9643 3848,9652 3737,9689C3575,9742 3475,9843 3436,9994C3405,10111 3388,10392 3392,10710L3396,11015L3438,11172C3461,11258 3496,11386 3515,11456C3534,11526 3568,11665 3591,11764C3657,12059 3656,12175 3580,12785C3532,13166 3504,13331 3446,13570C3310,14131 3295,14474 3397,14662C3463,14783 3648,14889 3885,14940C4018,14969 4224,14962 4424,14920ZM4502,14230C4666,14211 5073,14109 5338,14020C5462,13978 5747,13854 5890,13778C5953,13744 6140,13631 6305,13527C6787,13221 6832,13190 7096,12969C7180,12899 7320,12787 7407,12721C7567,12600 7710,12481 8087,12156C8486,11811 8697,11610 8891,11390C8970,11300 9120,11103 9120,11090C9120,11084 9114,11038 9106,10987C9098,10937 9088,10867 9085,10832L9078,10770L8955,10888C8099,11716 6132,12820 4987,13116C4882,13143 4860,13142 4860,13111C4860,13094 4874,13087 4933,13070C5429,12926 5879,12746 6450,12461C7010,12181 7477,11910 7975,11576C8380,11304 8697,11053 8932,10820L9069,10684L9063,10585C9060,10530 9054,10481 9050,10477C9046,10473 8974,10508 8889,10555C7795,11167 5992,11841 5079,11979C4866,12011 4820,12008 4837,11963C4843,11947 4856,11944 4975,11930C5516,11865 6516,11555 7485,11152C8016,10931 8596,10652 8951,10446L9045,10392L9043,10239C9041,10155 9039,10085 9037,10083C9035,10082 8986,10098 8929,10120C8406,10316 7222,10520 6075,10609C5642,10643 5426,10652 5051,10652C4730,10652 4686,10650 4672,10636C4659,10623 4658,10616 4666,10603C4676,10587 4703,10586 4986,10588C5943,10598 7344,10443 8344,10219C8649,10150 8961,10053 9024,10007C9040,9995 9043,9967 9051,9759C9055,9630 9069,9411 9080,9272C9092,9132 9099,9016 9096,9013C9093,9010 9060,9025 9023,9047C8814,9171 8681,9205 8060,9294C7717,9343 7355,9392 7141,9416C7039,9428 6843,9434 6355,9440C5642,9448 5440,9460 5090,9511C4716,9565 4596,9579 4460,9585C4258,9593 4070,9611 4063,9623C4055,9637 3975,9951 3944,10090C3924,10182 3919,10233 3919,10345C3919,10498 3940,10740 3964,10865C3989,10990 4066,11213 4137,11360C4224,11542 4240,11604 4247,11771C4254,11933 4242,12061 4194,12344C4157,12561 4147,12603 4086,12810C4032,12989 3955,13299 3935,13410C3911,13548 3904,13845 3923,13935C3946,14042 3977,14113 4021,14163C4054,14201 4070,14211 4113,14219C4216,14241 4372,14245 4502,14230ZM10335,12731C10532,12661 10679,12470 10680,12282C10680,12205 10656,12133 10604,12055C10519,11929 10525,11945 10544,11884C10564,11821 10589,11800 10645,11800C10769,11800 10864,11718 10951,11535C11053,11320 11122,10980 11150,10556C11164,10332 11162,9881 11145,9576C11131,9322 11095,8921 11082,8868L11075,8841L11010,8885C10618,9151 9836,9155 9361,8894C9326,8875 9296,8861 9293,8863C9289,8868 9256,9190 9241,9380C9164,10347 9233,11149 9425,11545C9512,11726 9607,11809 9725,11810C9784,11810 9791,11814 9819,11860C9849,11911 9845,11939 9799,12001C9738,12082 9711,12142 9698,12223C9676,12365 9734,12516 9853,12626C9916,12685 9965,12713 10050,12742C10121,12766 10250,12761 10335,12731ZM4125,9400C4169,9395 4300,9386 4415,9380C4534,9374 4699,9359 4795,9344C5397,9254 5462,9249 6250,9240C6956,9232 6974,9231 7485,9164C8326,9055 8691,8990 8813,8929C8903,8883 9047,8795 9081,8765C9101,8747 9122,8731 9128,8729C9138,8725 9164,8571 9156,8563C9154,8561 9116,8566 9073,8574C8329,8715 6081,8615 5340,8409C5236,8380 5208,8364 5212,8337C5216,8310 5221,8311 5335,8344C5643,8435 6232,8508 7055,8557C7425,8579 8450,8582 8695,8562C8922,8543 9124,8512 9159,8491C9171,8483 9204,8331 9196,8322C9194,8321 9151,8324 9099,8329C8452,8392 6881,8006 6037,7578C5842,7479 5670,7358 5670,7320C5670,7283 5701,7290 5773,7344C6242,7694 7538,8116 8540,8245C8766,8275 9178,8275 9207,8247C9208,8245 9214,8223 9218,8198L9227,8153L9079,8067C8997,8019 8873,7942 8803,7896C8660,7801 8262,7470 8039,7261C7959,7186 7826,7068 7744,7000C7662,6931 7519,6810 7425,6730C6916,6295 6637,6144 6100,6016C5891,5965 5712,5938 5580,5936C5441,5935 5390,5953 5341,6020C5263,6128 5207,6436 5170,6960C5158,7127 5147,7196 5120,7276C5061,7446 4908,7640 4705,7803C4318,8113 4153,8311 4095,8535C4063,8660 4022,9012 4015,9213C4010,9399 4010,9410 4027,9410C4037,9410 4081,9406 4125,9400ZM3851,8745C3894,8437 3927,8343 4053,8155C4131,8039 4328,7843 4526,7683C4689,7551 4775,7465 4847,7356C4934,7227 4952,7159 4970,6890C4990,6594 5027,6320 5071,6147C5096,6048 5156,5920 5203,5864C5246,5815 5334,5766 5421,5744C5637,5688 6306,5822 6717,6003C6975,6116 7205,6274 7575,6590C7669,6670 7810,6790 7890,6856C7970,6923 8098,7037 8175,7110C8383,7307 8774,7634 8908,7723C9038,7810 9260,7944 9264,7939C9269,7933 9290,7818 9290,7799C9290,7788 9253,7757 9188,7715C8919,7539 8705,7365 8455,7120C8268,6937 8210,6885 8025,6735C7965,6686 7876,6611 7827,6569C7779,6526 7664,6433 7572,6362C7480,6290 7353,6188 7290,6135C7227,6082 7137,6013 7090,5980C7043,5948 6962,5889 6910,5850C6804,5771 6449,5589 6278,5526C6148,5478 5873,5396 5778,5376C5635,5346 5416,5359 5250,5405C5081,5453 4974,5513 4873,5616C4739,5753 4690,5919 4670,6310C4653,6636 4627,6799 4561,6997C4486,7219 4410,7357 4277,7515C4186,7624 4106,7698 3869,7891C3635,8083 3553,8173 3510,8288C3449,8450 3487,8597 3702,9036L3805,9245L3813,9105C3817,9028 3834,8866 3851,8745ZM10488,8904C10707,8867 10891,8789 10991,8691C11031,8652 11050,8626 11050,8610C11050,8585 10992,8215 10985,8193C10983,8186 10953,8197 10904,8225C10691,8347 10410,8407 10100,8397C9834,8389 9601,8330 9439,8231C9401,8207 9391,8204 9386,8216C9383,8224 9366,8330 9348,8452L9316,8673L9345,8696C9431,8765 9655,8854 9834,8891C10031,8931 10300,8937 10488,8904ZM10375,8225C10430,8217 10518,8198 10570,8185C10673,8157 10865,8068 10918,8023L10951,7995L10915,7820C10895,7724 10878,7644 10876,7643C10875,7641 10858,7652 10839,7666C10820,7681 10768,7710 10722,7732C10394,7888 9876,7862 9564,7674C9533,7655 9503,7643 9500,7647C9496,7651 9476,7738 9456,7840L9420,8024L9447,8047C9531,8116 9749,8198 9920,8225C10036,8243 10254,8243 10375,8225ZM10452,7650C10614,7617 10748,7550 10806,7475L10830,7443L10804,7334C10780,7230 10741,7088 10735,7082C10734,7081 10700,7102 10660,7130C10470,7260 10195,7303 9941,7240C9859,7220 9727,7163 9663,7120L9631,7099L9621,7137C9616,7158 9595,7238 9576,7315L9540,7455L9580,7491C9622,7530 9732,7587 9818,7615C9999,7674 10263,7688 10452,7650ZM10365,7085C10494,7051 10656,6949 10675,6890C10680,6873 10606,6617 10591,6598C10588,6594 10559,6609 10528,6630C10330,6763 10043,6765 9849,6634C9821,6615 9794,6600 9790,6600C9781,6600 9749,6693 9705,6840L9680,6925L9716,6957C9787,7020 9929,7081 10055,7101C10127,7112 10295,7104 10365,7085ZM10348,6542C10412,6517 10506,6449 10515,6420C10527,6382 10412,6165 10335,6081C10284,6025 10214,5980 10178,5980C10082,5980 9976,6104 9890,6316C9853,6406 9852,6413 9866,6435C9897,6483 9975,6531 10062,6555C10135,6576 10278,6569 10348,6542Z" style="fill-rule:nonzero;"/>
    </g>
</svg>
