<?xml version="1.0" encoding="UTF-8" standalone="no"?>
<!DOCTYPE svg PUBLIC "-//W3C//DTD SVG 1.1//EN" "http://www.w3.org/Graphics/SVG/1.1/DTD/svg11.dtd">
<svg width="100%" height="100%" viewBox="0 0 2048 2048" version="1.1" xmlns="http://www.w3.org/2000/svg" xmlns:xlink="http://www.w3.org/1999/xlink" xml:space="preserve" xmlns:serif="http://www.serif.com/" style="fill-rule:evenodd;clip-rule:evenodd;stroke-linejoin:round;stroke-miterlimit:2;">
    <g transform="matrix(0.138219,0,0,-0.138219,-383.074,2427.57)">
        <g id="Jacket-Left" serif:id="Jacket Left" transform="matrix(-9.16386,0,0,-9.16386,10180,10154.7)">
            <g transform="matrix(1,0,0,1,-776,-522)">
                <g transform="matrix(0.1,0,0,-0.1,0,1044)">
                    <path d="M7560,10394C7183,10360 6853,10282 6661,10179C6546,10118 6411,10015 6394,9975C6383,9949 6382,9893 6387,9693L6393,9443L6244,9436C6016,9426 5833,9393 5621,9325C5320,9228 5060,9068 4929,8902C4896,8860 4863,8818 4855,8809C4819,8764 4816,8727 4838,8604C4849,8538 4861,8465 4864,8440C4867,8415 4879,8343 4889,8280C4900,8217 4918,8107 4929,8035C4954,7868 4985,7678 5011,7520C5022,7451 5036,7362 5040,7322C5045,7282 5056,7212 5064,7167C5072,7122 5091,7009 5105,6915C5119,6822 5139,6693 5150,6630C5160,6567 5178,6452 5190,6375C5202,6298 5219,6195 5227,6145C5275,5855 5283,5787 5291,5605C5313,5125 5340,4512 5345,4360C5348,4269 5358,4071 5366,3920C5374,3769 5385,3524 5390,3375C5394,3227 5406,2957 5414,2775C5443,2163 5461,1756 5471,1485C5492,873 5501,809 5565,767L5597,746L5605,457C5613,125 5614,121 5694,81L5742,57L6839,70C7442,77 8061,79 8215,76C8369,73 8790,68 9150,65L9805,60L9850,83C9922,119 9926,135 9934,425C9937,563 9940,691 9940,710C9940,739 9946,749 9969,763C9986,773 10006,800 10020,831C10039,876 10043,910 10050,1089C10082,1838 10103,2320 10121,2695C10132,2932 10143,3181 10145,3250C10154,3473 10190,4307 10206,4640C10214,4819 10225,5093 10231,5250C10246,5694 10265,5910 10307,6102L10315,6139L10491,6007C10588,5934 10681,5864 10698,5850C10715,5836 10763,5800 10805,5770C10847,5740 10901,5699 10924,5680C10947,5661 11003,5618 11049,5585C11094,5552 11160,5503 11194,5475C11229,5448 11276,5412 11299,5395C11322,5379 11359,5352 11380,5335C11401,5319 11441,5289 11467,5270C11493,5251 11517,5233 11520,5229C11526,5222 11883,4951 11960,4895C12021,4851 12288,4648 12409,4554C12483,4497 12532,4460 12577,4428C12640,4382 12987,4120 13039,4078C13069,4054 13105,4027 13119,4018C13133,4008 13164,3985 13187,3968C13319,3865 13747,3541 13837,3476C13874,3448 13907,3423 13910,3420C13924,3402 14123,3258 14145,3250C14209,3226 14237,3236 14306,3307C14342,3344 14379,3384 14387,3397C14395,3410 14406,3420 14410,3420C14415,3420 14456,3388 14502,3349C14602,3264 14634,3246 14679,3249C14722,3251 14747,3271 14838,3378C14879,3426 14919,3469 14926,3475C14932,3480 14973,3526 15015,3575C15058,3625 15102,3675 15114,3687C15159,3735 15189,3768 15261,3850C15302,3897 15340,3940 15347,3945C15385,3977 15429,4045 15435,4079C15444,4136 15427,4162 15311,4264C15255,4312 15210,4356 15210,4361C15210,4366 15236,4402 15269,4440C15361,4550 15360,4591 15261,4689C15199,4750 15165,4782 15035,4898C15008,4923 14942,4982 14890,5030C14838,5078 14710,5195 14605,5290C14501,5385 14375,5500 14325,5545C14276,5590 14215,5644 14191,5666C14167,5687 14133,5719 14116,5735C14098,5752 14042,5803 13990,5850C13899,5932 13825,6000 13694,6119C13661,6150 13591,6213 13539,6260C13488,6307 13416,6372 13380,6405C13344,6438 13270,6506 13215,6555C13161,6605 13106,6654 13095,6665C13069,6689 13008,6745 12880,6861C12828,6908 12726,7000 12654,7066C12583,7131 12482,7223 12430,7270C12379,7317 12325,7366 12310,7380C12295,7394 12223,7459 12149,7525C12076,7591 12002,7660 11985,7678C11968,7695 11950,7710 11946,7710C11942,7710 11929,7721 11917,7734C11894,7758 11810,7836 11650,7980C11539,8080 11306,8293 11235,8359C11208,8385 11149,8437 11106,8475C11063,8514 11013,8559 10996,8575C10978,8592 10924,8641 10875,8686C10825,8730 10738,8810 10680,8863C10622,8916 10572,8960 10568,8960C10563,8960 10541,8978 10518,9000C10421,9092 10224,9209 10050,9278C9807,9374 9572,9423 9291,9436L9147,9443L9153,9691C9160,9957 9155,9991 9110,10023C9099,10031 9070,10056 9046,10078C8894,10220 8607,10324 8220,10375C8101,10391 7668,10403 7560,10394ZM8200,10125C8433,10094 8646,10037 8779,9970L8833,9943L8704,9858C8633,9811 8521,9738 8455,9695C7963,9375 7982,9388 7955,9348C7935,9318 7829,9029 7792,8903C7784,8874 7774,8850 7770,8850C7766,8850 7745,8905 7722,8973C7642,9212 7605,9315 7585,9348C7572,9369 7517,9412 7425,9472C7348,9522 7229,9600 7160,9645C7091,9690 6968,9771 6885,9825C6803,9879 6731,9927 6726,9931C6714,9942 6822,9990 6947,10030C7106,10081 7336,10123 7570,10144C7673,10153 8081,10141 8200,10125ZM6785,9604C7098,9399 7279,9281 7352,9234L7428,9185L7464,9080C7483,9022 7531,8883 7569,8770C7608,8658 7637,8564 7634,8561C7632,8559 7576,8566 7511,8577C7412,8595 7376,8607 7289,8650C7029,8780 6836,8951 6673,9195C6640,9245 6609,9294 6603,9305C6598,9316 6593,9417 6591,9528L6588,9732L6617,9714C6632,9704 6708,9655 6785,9604ZM8949,9518C8946,9279 8946,9282 8864,9170C8705,8952 8483,8764 8255,8655C8108,8583 7900,8528 7900,8559C7900,8564 7912,8601 7926,8642C7940,8682 7955,8729 7960,8745C7965,8762 7994,8847 8025,8935C8056,9023 8085,9109 8090,9125C8104,9179 8110,9184 8243,9271C8541,9465 8593,9499 8765,9612C8864,9677 8947,9730 8948,9730C8950,9730 8950,9634 8949,9518ZM6373,9182C6406,9176 6416,9168 6437,9130C6520,8983 6607,8874 6766,8720C6983,8510 7165,8401 7421,8326C7587,8278 7754,8268 7952,8295C8352,8348 8792,8655 9080,9082C9156,9195 9159,9196 9323,9185C9679,9162 10019,9058 10267,8898C10341,8850 10448,8755 10482,8708L10503,8678L10481,8552C10462,8435 10450,8358 10390,7970C10378,7896 10360,7786 10350,7725C10339,7665 10328,7589 10324,7558L10317,7501L10276,7495C10254,7492 10071,7472 9870,7450C9669,7429 9120,7370 8650,7319L7795,7227L7670,7239C7601,7246 7446,7262 7325,7275C6874,7325 5245,7500 5233,7500C5226,7500 5218,7521 5215,7548C5209,7592 5186,7745 5140,8030C5129,8099 5111,8211 5101,8280C5090,8349 5072,8462 5060,8531C5049,8601 5040,8665 5040,8674C5040,8683 5069,8721 5105,8759C5244,8906 5474,9029 5757,9109C5969,9169 6256,9203 6373,9182ZM10747,8488C10758,8476 10786,8449 10807,8430C10902,8345 11045,8214 11166,8104C11237,8039 11338,7947 11390,7900C11442,7853 11511,7790 11544,7760C11577,7730 11636,7676 11675,7640C11714,7604 11788,7537 11840,7490C11892,7443 11964,7378 12000,7345C12036,7312 12112,7242 12170,7190C12228,7139 12280,7091 12285,7085C12291,7080 12367,7010 12455,6930C12543,6851 12620,6781 12625,6775C12631,6769 12671,6733 12714,6694C12757,6656 12807,6612 12824,6595C12842,6579 12896,6528 12945,6484C12995,6439 13096,6347 13170,6279C13245,6211 13348,6117 13400,6070C13537,5946 13628,5864 13690,5806C13720,5777 13781,5723 13824,5685C13867,5646 13917,5602 13934,5585C13951,5569 14010,5515 14065,5465C14119,5416 14174,5366 14185,5355C14197,5344 14226,5317 14251,5296C14275,5275 14320,5234 14350,5206C14380,5177 14455,5110 14515,5055C14576,5001 14632,4949 14641,4941C14650,4932 14719,4869 14795,4800C14871,4731 14962,4647 14998,4614L15063,4553L14751,4186C14580,3985 14409,3787 14372,3746C14335,3706 14294,3656 14280,3636C14266,3616 14241,3585 14224,3567C14207,3549 14191,3528 14188,3520C14182,3502 14196,3494 13985,3655C13821,3780 13778,3813 13720,3855C13619,3929 13546,3984 13540,3991C13537,3994 13464,4050 13377,4116C13290,4181 13200,4250 13177,4267C13154,4285 13121,4310 13104,4322C13048,4362 12696,4628 12680,4642C12661,4658 12518,4767 12480,4795C12451,4816 12241,4975 12067,5109C12012,5151 11958,5192 11945,5200C11914,5220 11877,5248 11827,5289C11775,5331 11414,5604 11330,5665C11311,5679 11276,5705 11253,5723C11197,5766 10964,5943 10865,6018C10772,6089 10741,6113 10604,6217C10548,6260 10471,6318 10432,6345C10347,6405 10350,6392 10385,6610C10399,6695 10419,6824 10431,6895C10442,6967 10460,7079 10471,7145C10482,7211 10495,7294 10500,7330C10505,7366 10516,7440 10525,7495C10533,7550 10550,7654 10561,7725C10572,7797 10590,7907 10601,7970C10612,8033 10625,8119 10630,8160C10635,8202 10643,8256 10649,8281C10654,8305 10664,8368 10671,8420C10677,8472 10684,8518 10687,8523C10693,8533 10720,8517 10747,8488ZM6530,7120C7193,7048 7756,6990 7780,6990C7805,6990 8375,7049 9048,7121C9720,7194 10272,7251 10274,7249C10276,7247 10270,7198 10260,7140C10214,6875 10199,6778 10190,6690C10184,6638 10173,6566 10165,6530C10157,6494 10142,6407 10131,6335C10120,6264 10097,6120 10081,6015C10056,5859 10048,5761 10035,5470C10027,5275 10013,4969 10005,4790C9996,4611 9985,4359 9980,4230C9967,3912 9934,3150 9910,2620C9899,2381 9888,2097 9884,1990C9881,1883 9875,1777 9871,1755L9863,1715L9836,1775C9775,1908 9664,2218 9625,2364C9543,2670 9521,2764 9475,2990C9457,3079 9434,3252 9425,3370C9422,3417 9414,3471 9408,3490C9383,3571 9306,3598 9253,3544C9186,3477 9219,3147 9347,2600C9371,2496 9379,2467 9441,2255C9568,1816 9721,1471 9822,1397L9853,1375L9846,1190C9842,1089 9837,1004 9836,1003C9834,1001 9369,992 8801,982C7808,964 7731,964 6738,982C6171,992 5704,1002 5701,1006C5698,1009 5694,1093 5692,1192L5689,1372L5722,1404C5830,1504 5944,1755 6079,2185C6101,2257 6123,2333 6129,2355C6134,2377 6152,2447 6168,2510C6280,2933 6347,3407 6310,3505C6298,3538 6260,3571 6243,3565C6236,3563 6230,3564 6230,3569C6230,3582 6179,3569 6173,3554C6170,3546 6162,3540 6155,3540C6135,3540 6130,3517 6115,3365C6094,3157 6084,3090 6051,2930C5999,2679 5993,2653 5912,2360C5862,2181 5761,1900 5699,1765L5676,1715L5669,1750C5665,1769 5657,1931 5650,2110C5644,2289 5632,2557 5624,2705C5616,2854 5605,3106 5600,3267C5594,3427 5586,3632 5580,3722C5575,3812 5566,4022 5560,4190C5554,4358 5545,4569 5540,4660C5535,4751 5526,4951 5520,5105C5505,5534 5491,5798 5480,5870C5469,5944 5442,6114 5406,6340C5392,6425 5379,6518 5375,6545C5372,6573 5363,6633 5355,6680C5335,6797 5303,6995 5285,7115C5276,7170 5267,7225 5264,7237C5259,7257 5261,7259 5292,7254C5310,7252 5867,7191 6530,7120ZM15104,4133C15162,4081 15163,4091 15092,4015C15076,3999 15035,3951 15000,3910C14965,3869 14927,3826 14915,3815C14903,3804 14848,3743 14793,3680C14648,3514 14662,3522 14609,3568L14566,3607L14660,3716C14712,3776 14766,3837 14780,3852C14813,3887 14829,3906 14924,4015C14967,4064 15013,4116 15026,4129C15039,4142 15050,4157 15050,4161C15050,4177 15062,4171 15104,4133ZM6970,725C7746,713 7913,713 8780,729C9305,739 9736,746 9737,745C9738,745 9737,646 9733,526L9727,309L9261,317C8661,327 6858,327 6268,317L5810,309L5810,393C5810,439 5807,538 5804,612L5797,747L5956,743C6043,741 6500,733 6970,725Z" style="fill-rule:nonzero;"/>
                </g>
            </g>
            <g>
            </g>
        </g>
    </g>
</svg>
